<mxfile><diagram id="Wl1SaZcdW75-zCTUP02W" name="Page-1"><mxGraphModel dx="2231" dy="770" grid="1" gridSize="10" guides="1" tooltips="1" connect="1" arrows="1" fold="1" page="1" pageScale="1" pageWidth="850" pageHeight="1100" math="0" shadow="0"><root><mxCell id="0"/><mxCell id="1" parent="0"/><mxCell id="2" value="OPEN" style="swimlane;fontStyle=0;childLayout=stackLayout;horizontal=1;startSize=30;horizontalStack=0;resizeParent=1;resizeParentMax=0;resizeLast=0;collapsible=1;marginBottom=0;" parent="1" vertex="1"><mxGeometry x="-10" y="110" width="140" height="90" as="geometry"/></mxCell><mxCell id="3" value="..." style="text;strokeColor=none;fillColor=none;align=left;verticalAlign=middle;spacingLeft=4;spacingRight=4;overflow=hidden;points=[[0,0.5],[1,0.5]];portConstraint=eastwest;rotatable=0;" parent="2" vertex="1"><mxGeometry y="30" width="140" height="30" as="geometry"/></mxCell><mxCell id="5" value="timeTracker = millis()" style="text;strokeColor=none;fillColor=none;align=left;verticalAlign=middle;spacingLeft=4;spacingRight=4;overflow=hidden;points=[[0,0.5],[1,0.5]];portConstraint=eastwest;rotatable=0;" parent="2" vertex="1"><mxGeometry y="60" width="140" height="30" as="geometry"/></mxCell><mxCell id="6" value="PRESS" style="swimlane;fontStyle=0;childLayout=stackLayout;horizontal=1;startSize=30;horizontalStack=0;resizeParent=1;resizeParentMax=0;resizeLast=0;collapsible=1;marginBottom=0;" parent="1" vertex="1"><mxGeometry x="-100" y="320" width="190" height="120" as="geometry"/></mxCell><mxCell id="7" value="..." style="text;strokeColor=none;fillColor=none;align=left;verticalAlign=middle;spacingLeft=4;spacingRight=4;overflow=hidden;points=[[0,0.5],[1,0.5]];portConstraint=eastwest;rotatable=0;" parent="6" vertex="1"><mxGeometry y="30" width="190" height="30" as="geometry"/></mxCell><mxCell id="47" value="buttonPrevState = PRESS" style="text;strokeColor=none;fillColor=none;align=left;verticalAlign=middle;spacingLeft=4;spacingRight=4;overflow=hidden;points=[[0,0.5],[1,0.5]];portConstraint=eastwest;rotatable=0;" parent="6" vertex="1"><mxGeometry y="60" width="190" height="30" as="geometry"/></mxCell><mxCell id="8" value="timeTracker = millis()" style="text;strokeColor=none;fillColor=none;align=left;verticalAlign=middle;spacingLeft=4;spacingRight=4;overflow=hidden;points=[[0,0.5],[1,0.5]];portConstraint=eastwest;rotatable=0;" parent="6" vertex="1"><mxGeometry y="90" width="190" height="30" as="geometry"/></mxCell><mxCell id="10" value="CLICK" style="swimlane;fontStyle=0;childLayout=stackLayout;horizontal=1;startSize=30;horizontalStack=0;resizeParent=1;resizeParentMax=0;resizeLast=0;collapsible=1;marginBottom=0;" parent="1" vertex="1"><mxGeometry x="-80" y="580" width="190" height="120" as="geometry"/></mxCell><mxCell id="11" value="..." style="text;strokeColor=none;fillColor=none;align=left;verticalAlign=middle;spacingLeft=4;spacingRight=4;overflow=hidden;points=[[0,0.5],[1,0.5]];portConstraint=eastwest;rotatable=0;" parent="10" vertex="1"><mxGeometry y="30" width="190" height="30" as="geometry"/></mxCell><mxCell id="12" value="buttonPrevState = CLICK" style="text;strokeColor=none;fillColor=none;align=left;verticalAlign=middle;spacingLeft=4;spacingRight=4;overflow=hidden;points=[[0,0.5],[1,0.5]];portConstraint=eastwest;rotatable=0;" parent="10" vertex="1"><mxGeometry y="60" width="190" height="30" as="geometry"/></mxCell><mxCell id="13" value="timeTracker = millis()" style="text;strokeColor=none;fillColor=none;align=left;verticalAlign=middle;spacingLeft=4;spacingRight=4;overflow=hidden;points=[[0,0.5],[1,0.5]];portConstraint=eastwest;rotatable=0;" parent="10" vertex="1"><mxGeometry y="90" width="190" height="30" as="geometry"/></mxCell><mxCell id="14" value="DEBOUNCING" style="swimlane;fontStyle=0;childLayout=stackLayout;horizontal=1;startSize=30;horizontalStack=0;resizeParent=1;resizeParentMax=0;resizeLast=0;collapsible=1;marginBottom=0;" parent="1" vertex="1"><mxGeometry x="440" y="130" width="200" height="120" as="geometry"/></mxCell><mxCell id="15" value="..." style="text;strokeColor=none;fillColor=none;align=left;verticalAlign=middle;spacingLeft=4;spacingRight=4;overflow=hidden;points=[[0,0.5],[1,0.5]];portConstraint=eastwest;rotatable=0;" parent="14" vertex="1"><mxGeometry y="30" width="200" height="30" as="geometry"/></mxCell><mxCell id="16" value="buttonPrevState = DEBOUNCING" style="text;strokeColor=none;fillColor=none;align=left;verticalAlign=middle;spacingLeft=4;spacingRight=4;overflow=hidden;points=[[0,0.5],[1,0.5]];portConstraint=eastwest;rotatable=0;" parent="14" vertex="1"><mxGeometry y="60" width="200" height="30" as="geometry"/></mxCell><mxCell id="17" value="timeTracker = millis()" style="text;strokeColor=none;fillColor=none;align=left;verticalAlign=middle;spacingLeft=4;spacingRight=4;overflow=hidden;points=[[0,0.5],[1,0.5]];portConstraint=eastwest;rotatable=0;" parent="14" vertex="1"><mxGeometry y="90" width="200" height="30" as="geometry"/></mxCell><mxCell id="18" value="DOUBLE_CLICK" style="swimlane;fontStyle=0;childLayout=stackLayout;horizontal=1;startSize=30;horizontalStack=0;resizeParent=1;resizeParentMax=0;resizeLast=0;collapsible=1;marginBottom=0;" parent="1" vertex="1"><mxGeometry x="400" y="780" width="210" height="120" as="geometry"/></mxCell><mxCell id="19" value="..." style="text;strokeColor=none;fillColor=none;align=left;verticalAlign=middle;spacingLeft=4;spacingRight=4;overflow=hidden;points=[[0,0.5],[1,0.5]];portConstraint=eastwest;rotatable=0;" parent="18" vertex="1"><mxGeometry y="30" width="210" height="30" as="geometry"/></mxCell><mxCell id="20" value="buttonPrevState = DOUBLE_CLICK" style="text;strokeColor=none;fillColor=none;align=left;verticalAlign=middle;spacingLeft=4;spacingRight=4;overflow=hidden;points=[[0,0.5],[1,0.5]];portConstraint=eastwest;rotatable=0;" parent="18" vertex="1"><mxGeometry y="60" width="210" height="30" as="geometry"/></mxCell><mxCell id="21" value="timeTracker = millis()" style="text;strokeColor=none;fillColor=none;align=left;verticalAlign=middle;spacingLeft=4;spacingRight=4;overflow=hidden;points=[[0,0.5],[1,0.5]];portConstraint=eastwest;rotatable=0;" parent="18" vertex="1"><mxGeometry y="90" width="210" height="30" as="geometry"/></mxCell><mxCell id="22" value="LONG_PRESS" style="swimlane;fontStyle=0;childLayout=stackLayout;horizontal=1;startSize=30;horizontalStack=0;resizeParent=1;resizeParentMax=0;resizeLast=0;collapsible=1;marginBottom=0;" parent="1" vertex="1"><mxGeometry x="580" y="280" width="200" height="120" as="geometry"/></mxCell><mxCell id="23" value="..." style="text;strokeColor=none;fillColor=none;align=left;verticalAlign=middle;spacingLeft=4;spacingRight=4;overflow=hidden;points=[[0,0.5],[1,0.5]];portConstraint=eastwest;rotatable=0;" parent="22" vertex="1"><mxGeometry y="30" width="200" height="30" as="geometry"/></mxCell><mxCell id="24" value="buttonPrevState = LONG_PRESS" style="text;strokeColor=none;fillColor=none;align=left;verticalAlign=middle;spacingLeft=4;spacingRight=4;overflow=hidden;points=[[0,0.5],[1,0.5]];portConstraint=eastwest;rotatable=0;" parent="22" vertex="1"><mxGeometry y="60" width="200" height="30" as="geometry"/></mxCell><mxCell id="25" value="timeTracker = millis()" style="text;strokeColor=none;fillColor=none;align=left;verticalAlign=middle;spacingLeft=4;spacingRight=4;overflow=hidden;points=[[0,0.5],[1,0.5]];portConstraint=eastwest;rotatable=0;" parent="22" vertex="1"><mxGeometry y="90" width="200" height="30" as="geometry"/></mxCell><mxCell id="26" value="RELEASE" style="swimlane;fontStyle=0;childLayout=stackLayout;horizontal=1;startSize=30;horizontalStack=0;resizeParent=1;resizeParentMax=0;resizeLast=0;collapsible=1;marginBottom=0;" parent="1" vertex="1"><mxGeometry x="780" y="690" width="190" height="120" as="geometry"/></mxCell><mxCell id="27" value="callbackFunction()" style="text;strokeColor=none;fillColor=none;align=left;verticalAlign=middle;spacingLeft=4;spacingRight=4;overflow=hidden;points=[[0,0.5],[1,0.5]];portConstraint=eastwest;rotatable=0;" parent="26" vertex="1"><mxGeometry y="30" width="190" height="30" as="geometry"/></mxCell><mxCell id="28" value="buttonPrevState = RELEASE" style="text;strokeColor=none;fillColor=none;align=left;verticalAlign=middle;spacingLeft=4;spacingRight=4;overflow=hidden;points=[[0,0.5],[1,0.5]];portConstraint=eastwest;rotatable=0;" parent="26" vertex="1"><mxGeometry y="60" width="190" height="30" as="geometry"/></mxCell><mxCell id="29" value="timeTracker = millis()" style="text;strokeColor=none;fillColor=none;align=left;verticalAlign=middle;spacingLeft=4;spacingRight=4;overflow=hidden;points=[[0,0.5],[1,0.5]];portConstraint=eastwest;rotatable=0;" parent="26" vertex="1"><mxGeometry y="90" width="190" height="30" as="geometry"/></mxCell><mxCell id="30" value="" style="endArrow=classic;html=1;exitX=1.021;exitY=0.125;exitDx=0;exitDy=0;entryX=-0.007;entryY=0.133;entryDx=0;entryDy=0;exitPerimeter=0;entryPerimeter=0;" parent="1" source="2" target="14" edge="1"><mxGeometry relative="1" as="geometry"><mxPoint x="200" y="170" as="sourcePoint"/><mxPoint x="300" y="170" as="targetPoint"/></mxGeometry></mxCell><mxCell id="31" value="buttonPhysicalState&amp;nbsp;= ON" style="edgeLabel;resizable=0;html=1;align=center;verticalAlign=middle;" parent="30" connectable="0" vertex="1"><mxGeometry relative="1" as="geometry"/></mxCell><mxCell id="33" value="" style="endArrow=classic;html=1;exitX=1.032;exitY=0.267;exitDx=0;exitDy=0;entryX=-0.007;entryY=0.108;entryDx=0;entryDy=0;exitPerimeter=0;entryPerimeter=0;" parent="1" source="8" target="75" edge="1"><mxGeometry relative="1" as="geometry"><mxPoint x="480" y="90" as="sourcePoint"/><mxPoint x="620" y="90" as="targetPoint"/></mxGeometry></mxCell><mxCell id="34" value="desiredEvent == PRESS&lt;br&gt;&amp;amp;&amp;amp;&lt;br&gt;[buttonPhysicalState&amp;nbsp;= ON&amp;nbsp;&lt;br&gt;&amp;amp;&amp;amp;&lt;br&gt;holdTime &amp;lt; longPressTimeThreshold&amp;nbsp;&lt;br&gt;&amp;amp;&amp;amp;&lt;br&gt;holdTime &amp;gt; clickTimeThreshold]" style="edgeLabel;resizable=0;html=1;align=center;verticalAlign=middle;" parent="33" connectable="0" vertex="1"><mxGeometry relative="1" as="geometry"><mxPoint x="13" y="16" as="offset"/></mxGeometry></mxCell><mxCell id="37" value="" style="endArrow=classic;html=1;entryX=1.021;entryY=0.867;entryDx=0;entryDy=0;entryPerimeter=0;exitX=0;exitY=0.9;exitDx=0;exitDy=0;exitPerimeter=0;" parent="1" source="15" target="3" edge="1"><mxGeometry relative="1" as="geometry"><mxPoint x="420" y="170" as="sourcePoint"/><mxPoint x="410" y="190" as="targetPoint"/></mxGeometry></mxCell><mxCell id="38" value="[holdTime &amp;lt; bounceBlockTimeThreshold]&lt;br&gt;&amp;amp;&amp;amp;&lt;br&gt;buttonPhysicalState = OFF" style="edgeLabel;resizable=0;html=1;align=center;verticalAlign=middle;" parent="37" connectable="0" vertex="1"><mxGeometry relative="1" as="geometry"/></mxCell><mxCell id="39" value="" style="endArrow=classic;html=1;exitX=-0.021;exitY=0.133;exitDx=0;exitDy=0;exitPerimeter=0;entryX=1;entryY=0.075;entryDx=0;entryDy=0;entryPerimeter=0;" parent="1" source="17" target="6" edge="1"><mxGeometry relative="1" as="geometry"><mxPoint x="370" y="200" as="sourcePoint"/><mxPoint x="120" y="272" as="targetPoint"/></mxGeometry></mxCell><mxCell id="40" value="holdTime &amp;gt;= debounceTimeThreshold&lt;br&gt;&amp;amp;&amp;amp;&lt;br&gt;buttonPhysicalState&amp;nbsp;= ON" style="edgeLabel;resizable=0;html=1;align=center;verticalAlign=middle;" parent="39" connectable="0" vertex="1"><mxGeometry relative="1" as="geometry"/></mxCell><mxCell id="41" value="" style="endArrow=classic;html=1;exitX=1.036;exitY=0.133;exitDx=0;exitDy=0;entryX=0;entryY=0;entryDx=0;entryDy=0;exitPerimeter=0;" parent="1" source="12" target="18" edge="1"><mxGeometry relative="1" as="geometry"><mxPoint x="230" y="490" as="sourcePoint"/><mxPoint x="370" y="490" as="targetPoint"/></mxGeometry></mxCell><mxCell id="42" value="buttonPhysicalState&amp;nbsp;= ON&lt;br&gt;&amp;amp;&amp;amp;&lt;br&gt;holdTime &amp;gt;= debounceTimeThreshold&lt;br&gt;&amp;amp;&amp;amp;&lt;br&gt;holdTime &amp;lt;= doubleClickLeaseTimeThreshould" style="edgeLabel;resizable=0;html=1;align=center;verticalAlign=middle;" parent="41" connectable="0" vertex="1"><mxGeometry relative="1" as="geometry"/></mxCell><mxCell id="43" value="" style="endArrow=classic;html=1;exitX=0.771;exitY=1;exitDx=0;exitDy=0;entryX=0;entryY=0;entryDx=0;entryDy=0;exitPerimeter=0;" parent="1" source="8" target="10" edge="1"><mxGeometry relative="1" as="geometry"><mxPoint x="90" y="435" as="sourcePoint"/><mxPoint x="173" y="470" as="targetPoint"/></mxGeometry></mxCell><mxCell id="44" value="[holdTime &amp;lt;= clickLeaseTimeThreshold&lt;br&gt;&amp;amp;&amp;amp;]&lt;br&gt;buttonPhysicalState&amp;nbsp;= OFF" style="edgeLabel;resizable=0;html=1;align=center;verticalAlign=middle;" parent="43" connectable="0" vertex="1"><mxGeometry relative="1" as="geometry"/></mxCell><mxCell id="45" value="" style="endArrow=classic;html=1;exitX=1;exitY=0.5;exitDx=0;exitDy=0;entryX=0.007;entryY=0.192;entryDx=0;entryDy=0;entryPerimeter=0;" parent="1" source="7" target="22" edge="1"><mxGeometry relative="1" as="geometry"><mxPoint x="190" y="310" as="sourcePoint"/><mxPoint x="310" y="310" as="targetPoint"/></mxGeometry></mxCell><mxCell id="46" value="buttonPhysicalState&amp;nbsp;= ON&lt;br&gt;&amp;amp;&amp;amp;&lt;br&gt;holdTime &amp;gt;= longPressLeaseTimeThreshold" style="edgeLabel;resizable=0;html=1;align=center;verticalAlign=middle;" parent="45" connectable="0" vertex="1"><mxGeometry relative="1" as="geometry"><mxPoint x="94" y="-9" as="offset"/></mxGeometry></mxCell><mxCell id="49" value="" style="endArrow=classic;html=1;exitX=0.75;exitY=0;exitDx=0;exitDy=0;" parent="1" source="18" target="78" edge="1"><mxGeometry relative="1" as="geometry"><mxPoint x="181.96000000000004" y="450" as="sourcePoint"/><mxPoint x="500" y="600" as="targetPoint"/></mxGeometry></mxCell><mxCell id="50" value="buttonPhysicalState&amp;nbsp;= OFF" style="edgeLabel;resizable=0;html=1;align=center;verticalAlign=middle;" parent="49" connectable="0" vertex="1"><mxGeometry relative="1" as="geometry"/></mxCell><mxCell id="51" value="" style="endArrow=classic;html=1;exitX=1.007;exitY=0.125;exitDx=0;exitDy=0;entryX=0;entryY=0.5;entryDx=0;entryDy=0;exitPerimeter=0;" parent="1" source="10" target="77" edge="1"><mxGeometry relative="1" as="geometry"><mxPoint x="111.96000000000004" y="418.01" as="sourcePoint"/><mxPoint x="550" y="565" as="targetPoint"/></mxGeometry></mxCell><mxCell id="52" value="holdTime &amp;gt;= doubleClickLeaseTimeThreshold&lt;br&gt;&amp;amp;&amp;amp;&lt;br&gt;buttoPhysicalState = OFF" style="edgeLabel;resizable=0;html=1;align=center;verticalAlign=middle;" parent="51" connectable="0" vertex="1"><mxGeometry relative="1" as="geometry"/></mxCell><mxCell id="65" value="" style="endArrow=classic;html=1;entryX=0.25;entryY=0;entryDx=0;entryDy=0;exitX=0.792;exitY=1.065;exitDx=0;exitDy=0;exitPerimeter=0;" parent="1" source="25" target="26" edge="1"><mxGeometry relative="1" as="geometry"><mxPoint x="510" y="500" as="sourcePoint"/><mxPoint x="610" y="500" as="targetPoint"/></mxGeometry></mxCell><mxCell id="66" value="buttonPhysicalState = OFF" style="edgeLabel;resizable=0;html=1;align=center;verticalAlign=middle;" parent="65" connectable="0" vertex="1"><mxGeometry relative="1" as="geometry"/></mxCell><mxCell id="67" value="STUCK" style="swimlane;fontStyle=0;childLayout=stackLayout;horizontal=1;startSize=30;horizontalStack=0;resizeParent=1;resizeParentMax=0;resizeLast=0;collapsible=1;marginBottom=0;" parent="1" vertex="1"><mxGeometry x="970" y="410" width="180" height="120" as="geometry"/></mxCell><mxCell id="68" value="..." style="text;strokeColor=none;fillColor=none;align=left;verticalAlign=middle;spacingLeft=4;spacingRight=4;overflow=hidden;points=[[0,0.5],[1,0.5]];portConstraint=eastwest;rotatable=0;" parent="67" vertex="1"><mxGeometry y="30" width="180" height="30" as="geometry"/></mxCell><mxCell id="69" value="buttonPrevState =  STUCK" style="text;strokeColor=none;fillColor=none;align=left;verticalAlign=middle;spacingLeft=4;spacingRight=4;overflow=hidden;points=[[0,0.5],[1,0.5]];portConstraint=eastwest;rotatable=0;" parent="67" vertex="1"><mxGeometry y="60" width="180" height="30" as="geometry"/></mxCell><mxCell id="70" value="timeTracker = millis()" style="text;strokeColor=none;fillColor=none;align=left;verticalAlign=middle;spacingLeft=4;spacingRight=4;overflow=hidden;points=[[0,0.5],[1,0.5]];portConstraint=eastwest;rotatable=0;" parent="67" vertex="1"><mxGeometry y="90" width="180" height="30" as="geometry"/></mxCell><mxCell id="73" value="" style="endArrow=classic;html=1;entryX=0.75;entryY=0;entryDx=0;entryDy=0;exitX=0.391;exitY=1.075;exitDx=0;exitDy=0;exitPerimeter=0;" parent="1" source="70" target="26" edge="1"><mxGeometry relative="1" as="geometry"><mxPoint x="1010" y="311.9499999999998" as="sourcePoint"/><mxPoint x="1014.94" y="410" as="targetPoint"/></mxGeometry></mxCell><mxCell id="74" value="buttonPhysicalState = OFF" style="edgeLabel;resizable=0;html=1;align=center;verticalAlign=middle;" parent="73" connectable="0" vertex="1"><mxGeometry relative="1" as="geometry"/></mxCell><mxCell id="75" value="TAKE_ACTION" style="swimlane;fontStyle=0;childLayout=stackLayout;horizontal=1;startSize=30;horizontalStack=0;resizeParent=1;resizeParentMax=0;resizeLast=0;collapsible=1;marginBottom=0;" parent="1" vertex="1"><mxGeometry x="480" y="510" width="160" height="120" as="geometry"/></mxCell><mxCell id="76" value="check (releaseBlockTime)" style="text;strokeColor=none;fillColor=none;align=left;verticalAlign=middle;spacingLeft=4;spacingRight=4;overflow=hidden;points=[[0,0.5],[1,0.5]];portConstraint=eastwest;rotatable=0;" parent="75" vertex="1"><mxGeometry y="30" width="160" height="30" as="geometry"/></mxCell><mxCell id="77" value="callBackFunction()" style="text;strokeColor=none;fillColor=none;align=left;verticalAlign=middle;spacingLeft=4;spacingRight=4;overflow=hidden;points=[[0,0.5],[1,0.5]];portConstraint=eastwest;rotatable=0;" parent="75" vertex="1"><mxGeometry y="60" width="160" height="30" as="geometry"/></mxCell><mxCell id="78" value="millis()" style="text;strokeColor=none;fillColor=none;align=left;verticalAlign=middle;spacingLeft=4;spacingRight=4;overflow=hidden;points=[[0,0.5],[1,0.5]];portConstraint=eastwest;rotatable=0;" parent="75" vertex="1"><mxGeometry y="90" width="160" height="30" as="geometry"/></mxCell><mxCell id="79" value="" style="endArrow=classic;html=1;entryX=0.557;entryY=0;entryDx=0;entryDy=0;exitX=0.267;exitY=1.133;exitDx=0;exitDy=0;exitPerimeter=0;entryPerimeter=0;" parent="1" source="25" target="75" edge="1"><mxGeometry relative="1" as="geometry"><mxPoint x="670" y="430.00000000000006" as="sourcePoint"/><mxPoint x="784.94" y="598.05" as="targetPoint"/></mxGeometry></mxCell><mxCell id="80" value="desiredEvent == LONG_PRESS" style="edgeLabel;resizable=0;html=1;align=center;verticalAlign=middle;" parent="79" connectable="0" vertex="1"><mxGeometry relative="1" as="geometry"/></mxCell><mxCell id="81" value="" style="endArrow=classic;html=1;exitX=-0.005;exitY=0.1;exitDx=0;exitDy=0;exitPerimeter=0;entryX=1.021;entryY=-0.067;entryDx=0;entryDy=0;entryPerimeter=0;" parent="1" source="26" target="78" edge="1"><mxGeometry relative="1" as="geometry"><mxPoint x="770" y="790" as="sourcePoint"/><mxPoint x="860" y="860" as="targetPoint"/></mxGeometry></mxCell><mxCell id="82" value="holdTime &amp;gt;= releaseBlockTime" style="edgeLabel;resizable=0;html=1;align=center;verticalAlign=middle;" parent="81" connectable="0" vertex="1"><mxGeometry relative="1" as="geometry"/></mxCell><mxCell id="83" value="" style="endArrow=classic;html=1;exitX=1.007;exitY=0.175;exitDx=0;exitDy=0;exitPerimeter=0;entryX=0.006;entryY=0.167;entryDx=0;entryDy=0;entryPerimeter=0;" parent="1" source="75" target="67" edge="1"><mxGeometry relative="1" as="geometry"><mxPoint x="600" y="530" as="sourcePoint"/><mxPoint x="700" y="530" as="targetPoint"/></mxGeometry></mxCell><mxCell id="84" value="holdTime &amp;gt;= releaseBlockTime&lt;br&gt;&amp;amp;&amp;amp; ==&amp;gt;&lt;br&gt;buttonPhysicalState&amp;nbsp;= ON" style="edgeLabel;resizable=0;html=1;align=center;verticalAlign=middle;" parent="83" connectable="0" vertex="1"><mxGeometry relative="1" as="geometry"><mxPoint x="39" y="-20" as="offset"/></mxGeometry></mxCell><mxCell id="85" value="" style="endArrow=classic;html=1;exitX=0.25;exitY=0;exitDx=0;exitDy=0;entryX=0.293;entryY=1.167;entryDx=0;entryDy=0;entryPerimeter=0;" parent="1" source="75" target="5" edge="1"><mxGeometry relative="1" as="geometry"><mxPoint x="660" y="780" as="sourcePoint"/><mxPoint x="760" y="780" as="targetPoint"/></mxGeometry></mxCell><mxCell id="86" value="&lt;span style=&quot;color: rgb(240 , 240 , 240) ; font-family: &amp;#34;helvetica&amp;#34; ; font-size: 11px ; font-style: normal ; font-weight: 400 ; letter-spacing: normal ; text-align: center ; text-indent: 0px ; text-transform: none ; word-spacing: 0px ; background-color: rgb(42 , 42 , 42) ; display: inline ; float: none&quot;&gt;holdTime &amp;gt;= releaseBlockTime&lt;/span&gt;&lt;br style=&quot;color: rgb(240 , 240 , 240) ; font-family: &amp;#34;helvetica&amp;#34; ; font-size: 11px ; font-style: normal ; font-weight: 400 ; letter-spacing: normal ; text-align: center ; text-indent: 0px ; text-transform: none ; word-spacing: 0px&quot;&gt;&lt;span style=&quot;color: rgb(240 , 240 , 240) ; font-family: &amp;#34;helvetica&amp;#34; ; font-size: 11px ; font-style: normal ; font-weight: 400 ; letter-spacing: normal ; text-align: center ; text-indent: 0px ; text-transform: none ; word-spacing: 0px ; background-color: rgb(42 , 42 , 42) ; display: inline ; float: none&quot;&gt;&amp;amp;&amp;amp; ==&amp;gt;&lt;/span&gt;&lt;br style=&quot;color: rgb(240 , 240 , 240) ; font-family: &amp;#34;helvetica&amp;#34; ; font-size: 11px ; font-style: normal ; font-weight: 400 ; letter-spacing: normal ; text-align: center ; text-indent: 0px ; text-transform: none ; word-spacing: 0px&quot;&gt;&lt;span style=&quot;color: rgb(240 , 240 , 240) ; font-family: &amp;#34;helvetica&amp;#34; ; font-size: 11px ; font-style: normal ; font-weight: 400 ; letter-spacing: normal ; text-align: center ; text-indent: 0px ; text-transform: none ; word-spacing: 0px ; background-color: rgb(42 , 42 , 42) ; display: inline ; float: none&quot;&gt;buttonPhysicalState&amp;nbsp;= OFF&lt;/span&gt;" style="edgeLabel;resizable=0;html=1;align=center;verticalAlign=middle;" parent="85" connectable="0" vertex="1"><mxGeometry relative="1" as="geometry"><mxPoint x="54" y="27" as="offset"/></mxGeometry></mxCell></root></mxGraphModel></diagram></mxfile>